<?xml version="1.0" standalone="no"?>
<!DOCTYPE svg PUBLIC "-//W3C//DTD SVG 20010904//EN"
 "http://www.w3.org/TR/2001/REC-SVG-20010904/DTD/svg10.dtd">
<svg version="1.0" xmlns="http://www.w3.org/2000/svg"
 width="321.000000pt" height="223.000000pt" viewBox="0 0 321.000000 223.000000"
 preserveAspectRatio="xMidYMid meet">

<g transform="translate(0.000000,223.000000) scale(0.100000,-0.100000)"
fill="#0976e2" stroke="none">
<path d="M1303 2055 c-54 -16 -123 -57 -167 -98 -66 -61 -107 -134 -191 -344
-31 -76 -60 -147 -65 -158 -12 -27 -145 -355 -154 -378 -6 -20 -22 -18 -81 9
-126 56 -313 124 -341 124 -46 0 -107 -32 -135 -72 -43 -59 -37 -142 22 -333
8 -28 34 -116 80 -280 11 -38 27 -95 36 -125 24 -83 53 -130 95 -151 44 -23
127 -25 166 -5 60 31 74 58 224 431 33 83 66 164 74 180 7 17 37 91 67 165
164 408 284 691 314 738 26 41 45 59 86 77 62 30 79 30 133 6 69 -31 112 -93
192 -271 11 -25 50 -112 87 -195 36 -82 76 -171 88 -197 l22 -48 20 24 c29 33
81 67 124 80 l38 11 -41 91 c-23 50 -52 115 -65 145 -126 282 -167 365 -206
416 -106 139 -278 203 -422 158z m-716 -1179 c4 -3 15 -6 25 -6 10 0 18 -5 18
-12 0 -12 -94 -252 -110 -280 -6 -10 -10 -25 -10 -33 0 -34 -18 -11 -34 43
-10 31 -21 68 -26 82 -15 44 -59 194 -66 225 -4 17 -11 35 -16 42 -25 32 11
28 108 -12 58 -24 108 -46 111 -49z"/>
<path d="M2001 1196 c-49 -18 -111 -74 -132 -120 -22 -49 -25 -143 -6 -189 38
-90 117 -141 217 -141 137 0 230 94 230 231 0 74 -25 129 -79 174 -65 56 -152
73 -230 45z"/>
<path d="M2605 1124 c-152 -83 -153 -289 -2 -360 61 -28 87 -30 150 -8 77 26
137 111 137 194 0 48 -46 127 -90 156 -53 35 -148 44 -195 18z"/>
<path d="M1032 763 c-17 -43 -34 -86 -38 -96 -5 -14 4 -21 42 -38 27 -11 58
-24 69 -29 87 -38 496 -200 516 -205 26 -6 26 -6 31 67 3 47 11 84 23 101 10
15 16 29 14 31 -6 5 -614 246 -621 246 -3 0 -19 -35 -36 -77z"/>
<path d="M2160 719 c-14 -6 -61 -9 -104 -7 -97 4 -115 -14 -32 -32 75 -15 166
2 166 31 0 10 -1 19 -2 18 -2 0 -14 -5 -28 -10z"/>
<path d="M1837 656 c-102 -37 -157 -123 -157 -247 0 -68 3 -82 24 -106 l24
-28 352 0 352 0 24 28 c21 25 24 38 24 106 0 67 -4 87 -28 132 -52 101 -161
148 -264 115 -62 -20 -159 -20 -213 -1 -49 18 -89 18 -138 1z"/>
<path d="M2513 658 c-33 -11 -43 -31 -22 -44 6 -3 22 -30 35 -58 19 -41 24
-68 24 -133 l0 -83 206 0 206 0 29 29 c24 25 29 38 29 78 -1 91 -52 163 -144
204 -41 18 -58 20 -100 14 -63 -10 -105 -10 -176 -2 -32 3 -69 1 -87 -5z"/>
</g>
</svg>
